[img]http://img209.imageshack.us/img209/4682/22547561.jpg[/img]

File size                        : 1.40 GiB
Duration                         : 1h 29mn
Overall bit rate                 : 2 240 Kbps

Video
ID                               : 0
Format                           : MPEG-4 Visual
Format profile                   : Advanced Simple@L5
Format settings, BVOP            : 2
Format settings, QPel            : No
Format settings, GMC             : No warppoints
Format settings, Matrix          : Default (H.263)
Codec ID                         : XVID
Codec ID/Hint                    : XviD
Duration                         : 1h 29mn
Bit rate                         : 1 785 Kbps
Width                            : 720 pixels
Height                           : 400 pixels
Display aspect ratio             : 16:9
Frame rate                       : 25.000 fps
Color space                      : YUV
Chroma subsampling               : 4:2:0
Bit depth                        : 8 bits
Scan type                        : Progressive
Compression mode                 : Lossy
Bits/(Pixel*Frame)               : 0.248
Stream size                      : 1.11 GiB (80%)
Writing library                  : XviD 1.2.1 (UTC 2008-12-04)

Audio
ID                               : 1
Format                           : AC-3
Format/Info                      : Audio Coding 3
Mode extension                   : CM (complete main)
Codec ID                         : 2000
Duration                         : 1h 29mn
Bit rate mode                    : Constant
Bit rate                         : 448 Kbps
Channel(s)                       : 6 channels
Channel positions                : Front: L C R, Side: L R, LFE
Sampling rate                    : 48.0 KHz
Bit depth                        : 16 bits
Compression mode                 : Lossy
Stream size                      : 286 MiB (20%)
Alignment                        : Aligned on interleaves
Interleave, duration             : 64 ms (1.60 video frames)
Interleave, preload duration     : 192 ms
Title                            : VTS_01_1 T80 3_2ch 448Kbps DELAY 0ms_new

Source PAL DVD and sample provided.

After twenty years in prison, Foley is finished with the grifter's life. When he meets an elusive young woman named Iris, the possibility of a new start looks real. But his past is proving to be a stubborn companion. 

[img]http://img842.imageshack.us/img842/2681/48290881.png[/img]
[img]http://img269.imageshack.us/img269/3848/61797710.png[/img]
[img]http://img43.imageshack.us/img43/1399/67766217.png[/img]
[img]http://img17.imageshack.us/img17/5241/42741277.png[/img]
[img]http://img443.imageshack.us/img443/723/53495743.png[/img]